<?xml version="1.0" encoding="utf-8"?>
<!-- Generator: Adobe Illustrator 18.1.0, SVG Export Plug-In . SVG Version: 6.00 Build 0)  -->
<svg version="1.1" id="Layer_1" xmlns="http://www.w3.org/2000/svg" xmlns:xlink="http://www.w3.org/1999/xlink" x="0px" y="0px"
	 viewBox="0 0 500 500" enable-background="new 0 0 500 500" xml:space="preserve">
<path fill="#010101" d="M333.9,2.5h-4.4V0h-38.7v2.5h-121c-19.2,0-34.9,16.9-34.9,37.6v7.7v23.3h-3.6V93h3.6v6.9v18.4h-3v17.2h3v8.3
	v15.4h-3v17.2h3v286.2c0,20.7,15.7,37.5,34.9,37.5H334c19.2,0,34.9-16.9,34.9-37.5V40.1C368.9,19.5,353.1,2.5,333.9,2.5z M252.5,22
	c2.4,0,4.3,1.9,4.3,4.3c0,2.4-1.9,4.3-4.3,4.3c-2.4,0-4.3-1.9-4.3-4.3C248.1,23.9,250.1,22,252.5,22z M231.8,44.4c0-2.2,1.8-4,4-4
	H269c2.2,0,4,1.8,4,4v0.5c0,2.2-1.8,4-4,4h-33.2c-2.2,0-4-1.8-4-4L231.8,44.4L231.8,44.4z M252.5,486.1c-11.4,0-20.7-9.3-20.7-20.7
	c0-11.4,9.3-20.7,20.7-20.7c11.4,0,20.7,9.3,20.7,20.7C273.1,476.8,263.8,486.1,252.5,486.1z M353.2,429.4H151.7V74.6h201.6V429.4z"
	/>
</svg>
