<?xml version="1.0" encoding="utf-8"?>
<!-- Generator: Adobe Illustrator 18.1.0, SVG Export Plug-In . SVG Version: 6.00 Build 0)  -->
<svg version="1.1" id="Layer_1" xmlns="http://www.w3.org/2000/svg" xmlns:xlink="http://www.w3.org/1999/xlink" x="0px" y="0px"
	 viewBox="0 0 500 500" enable-background="new 0 0 500 500" xml:space="preserve">
<path fill="#010101" d="M423.7,0H76.3c-9.6,0-17.5,7.9-17.5,17.5v465c0,9.6,7.9,17.5,17.5,17.5h347.4c9.6,0,17.5-7.9,17.5-17.5v-465
	C441.2,7.9,433.3,0,423.7,0z M250,20.6c1.8,0,3.3,1.5,3.3,3.3s-1.5,3.3-3.3,3.3c-1.8,0-3.3-1.5-3.3-3.3S248.2,20.6,250,20.6z
	 M250,489.6c-6.9,0-12.4-5.6-12.4-12.4c0-6.9,5.6-12.4,12.4-12.4c6.9,0,12.4,5.6,12.4,12.4C262.4,484.2,256.9,489.6,250,489.6z
	 M402.2,452.8H97.8V46.5h304.4L402.2,452.8L402.2,452.8z"/>
</svg>
