<?xml version="1.0" encoding="utf-8"?>
<!-- Generator: Adobe Illustrator 18.1.0, SVG Export Plug-In . SVG Version: 6.00 Build 0)  -->
<svg version="1.1" id="Layer_1" xmlns="http://www.w3.org/2000/svg" xmlns:xlink="http://www.w3.org/1999/xlink" x="0px" y="0px"
	 viewBox="0 0 500 500" enable-background="new 0 0 500 500" xml:space="preserve">
<path fill="#010101" d="M392.2,0H107.8c-14.9,0-27,12.2-27,27v446c0,14.9,12.2,27,27,27h284.2c14.9,0,27-12.2,27-27V27
	C419.2,12.2,407,0,392.2,0z M250,22.5c2.2,0,4,1.8,4,4s-1.8,4-4,4c-2.2,0-4-1.8-4-4C246,24.4,247.8,22.5,250,22.5z M250,491
	c-7.9,0-14.2-6.4-14.2-14.2c0-7.8,6.4-14.2,14.2-14.2c7.9,0,14.2,6.4,14.2,14.2C264.3,484.5,258,491,250,491z M401.8,451.8H98.2
	V49.5h303.7v402.3H401.8z"/>
</svg>
